# xmcd
#
# Track frame offsets:
#	150
#	17679
#	35605
#	48132
#
# Disc length: 973 seconds
#
# Revision: 1
# Processed by: cddbd v1.5PL3 Copyright (c) Steve Scherf et al.
# Submitted via: audiograbber 1.83.01
#
DISCID=2603cb04
DTITLE=Patrice - You Always You
DYEAR=2000
DGENRE=RnB/Regggae
TTITLE0=You Always You [Album Version] (Radio Edit)
TTITLE1=You Always You [Milan Version] (Radio Edit)
TTITLE2=You Always You [Acoustic Version]
TTITLE3=You Always You [P&E Dub Version]
EXTD=
EXTT0=
EXTT1=
EXTT2=
EXTT3=
PLAYORDER=
